<svg xmlns:xlink="http://www.w3.org/1999/xlink" xmlns="http://www.w3.org/2000/svg" width="53.294" height="16.264" viewBox="0 0 53.294 16.264"><g transform="translate(0 -280.74)"><g transform="matrix(.35278 0 0 -.35278 -186.87 371.68)"><g transform="translate(590.88 219.32)"><path d="m0 0c-1.498 0.028-2.739 0.194-3.724 0.499-0.984 0.305-1.768 0.742-2.35 1.311-0.583 0.568-0.992 1.275-1.227 2.122-0.237 0.845-0.354 1.809-0.354 2.891v25.045l5.034 0.832v-24.92c0-0.61 0.048-1.124 0.145-1.54 0.098-0.416 0.271-0.769 0.52-1.06 0.25-0.291 0.59-0.514 1.02-0.666 0.43-0.153 0.978-0.271 1.644-0.354z" fill="#6D80BF"></path></g><path d="m599.62 219.74h-5.034v21.759h5.034zm0.54 28.124c0-0.943-0.305-1.691-0.915-2.246s-1.331-0.832-2.163-0.832c-0.86 0-1.595 0.277-2.205 0.832-0.611 0.555-0.915 1.303-0.915 2.246 0 0.971 0.304 1.734 0.915 2.289 0.61 0.554 1.345 0.832 2.205 0.832 0.832 0 1.553-0.278 2.163-0.832 0.61-0.555 0.915-1.318 0.915-2.289" fill="#6D80BF"></path><g transform="translate(602.9 240.79)"><path d="m0 0c0.97 0.276 2.232 0.541 3.786 0.79 1.553 0.25 3.272 0.375 5.159 0.375 1.774 0 3.259-0.243 4.451-0.728 1.192-0.486 2.143-1.166 2.85-2.039 0.708-0.874 1.207-1.928 1.498-3.162s0.437-2.587 0.437-4.056v-12.232h-5.034v11.442c0 1.165-0.077 2.156-0.229 2.974-0.153 0.818-0.402 1.484-0.749 1.997s-0.818 0.887-1.415 1.123c-0.596 0.236-1.324 0.354-2.184 0.354-0.638 0-1.304-0.042-1.997-0.125s-1.206-0.152-1.539-0.208v-17.557h-5.034z" fill="#6D80BF"></path></g><g transform="translate(629.15 233.01)"><path d="m0 0c0.638 0.666 1.317 1.38 2.039 2.143 0.72 0.762 1.428 1.525 2.121 2.288 0.693 0.762 1.352 1.498 1.976 2.205 0.624 0.708 1.158 1.324 1.602 1.851h5.95c-1.384-1.553-2.845-3.162-4.38-4.826-1.536-1.664-3.078-3.286-4.628-4.867 0.83-0.694 1.702-1.533 2.615-2.518 0.914-0.984 1.799-2.032 2.657-3.14 0.859-1.111 1.66-2.22 2.408-3.328 0.747-1.111 1.37-2.137 1.869-3.079h-5.825c-0.5 0.859-1.075 1.76-1.727 2.704-0.652 0.942-1.352 1.858-2.101 2.746-0.749 0.887-1.512 1.726-2.288 2.516-0.777 0.791-1.539 1.463-2.288 2.019v-9.985h-5.034v31.452l5.034 0.832z" fill="#6D80BF"></path></g><g transform="translate(652.85 219.32)"><path d="m0 0c-1.498 0.028-2.739 0.194-3.724 0.499-0.984 0.305-1.768 0.742-2.35 1.311-0.583 0.568-0.992 1.275-1.227 2.122-0.237 0.845-0.354 1.809-0.354 2.891v25.045l5.034 0.832v-24.92c0-0.61 0.048-1.124 0.145-1.54 0.098-0.416 0.271-0.769 0.52-1.06 0.25-0.291 0.59-0.514 1.02-0.666 0.43-0.153 0.978-0.271 1.644-0.354z" fill="#264771"></path></g><g transform="translate(667.91 232.76)"><path d="m0 0c0 0.692-0.098 1.352-0.292 1.976s-0.478 1.165-0.852 1.623c-0.375 0.457-0.832 0.817-1.373 1.081-0.541 0.263-1.186 0.395-1.935 0.395-0.777 0-1.456-0.145-2.038-0.436-0.583-0.291-1.075-0.673-1.477-1.145-0.403-0.472-0.715-1.013-0.936-1.622-0.222-0.61-0.375-1.234-0.458-1.872zm-14.603-2.247c0 1.914 0.284 3.592 0.853 5.034 0.568 1.442 1.324 2.642 2.267 3.599s2.025 1.677 3.245 2.163c1.22 0.485 2.468 0.728 3.745 0.728 2.995 0 5.331-0.929 7.01-2.787 1.678-1.859 2.517-4.633 2.517-8.321 0-0.277-7e-3 -0.59-0.021-0.936-0.014-0.347-0.035-0.659-0.062-0.936h-14.354c0.139-1.747 0.756-3.1 1.852-4.057 1.095-0.957 2.683-1.435 4.763-1.435 1.221 0 2.337 0.111 3.35 0.333 1.012 0.221 1.809 0.458 2.392 0.707l0.666-4.118c-0.278-0.14-0.66-0.286-1.145-0.437-0.485-0.153-1.04-0.292-1.664-0.417-0.624-0.124-1.297-0.228-2.018-0.311s-1.456-0.125-2.205-0.125c-1.913 0-3.578 0.285-4.992 0.853-1.415 0.567-2.579 1.358-3.495 2.371-0.915 1.012-1.595 2.205-2.039 3.578-0.443 1.373-0.665 2.877-0.665 4.514" fill="#264771"></path></g><path d="m680.23 219.74h-5.034v21.759h5.034zm0.54 28.124c0-0.943-0.305-1.691-0.915-2.246s-1.331-0.832-2.163-0.832c-0.86 0-1.596 0.277-2.205 0.832-0.611 0.555-0.916 1.303-0.916 2.246 0 0.971 0.305 1.734 0.916 2.289 0.609 0.554 1.345 0.832 2.205 0.832 0.832 0 1.553-0.278 2.163-0.832 0.61-0.555 0.915-1.318 0.915-2.289" fill="#264771"></path><g transform="translate(546.96 248.45)"><path d="m0 0c-1.348 0-2.033-0.687-2.033-4.441v-14.544c0.344 0.269 0.69 0.554 1.039 0.856 4.859 4.208 6.175 10.982 4.64 15.099-0.516 1.382-1.567 3.03-3.646 3.03m-2.033-22.716v-8.996l5.913 5.602c0.282 0.266 0.656 0.416 1.044 0.416h9.811c2.512 0 4.555 2.043 4.555 4.554v22.891c0 2.511-2.043 4.555-4.555 4.555h-24.408c-2.512 0-4.556-2.044-4.556-4.555v-20.311c0-1.977 0.619-3.262 1.837-3.819 1.458-0.666 4.13-0.385 7.323 1.37v16.568c0 2.045 0 7.477 5.069 7.477 2.939 0 5.305-1.824 6.491-5.006 1.871-5.017 0.58-13.191-5.497-18.454-0.996-0.863-2.011-1.629-3.027-2.292m-1.518-14.044c-0.202 0-0.407 0.04-0.6 0.123-0.557 0.241-0.918 0.789-0.918 1.396v10.848c-3.252-1.467-6.318-1.783-8.585-0.748-1.348 0.617-3.611 2.291-3.611 6.581v20.311c0 4.186 3.406 7.591 7.592 7.591h24.408c4.186 0 7.592-3.405 7.592-7.591v-22.891c0-4.186-3.406-7.591-7.592-7.591h-9.206l-8.036-7.613c-0.287-0.272-0.663-0.416-1.044-0.416" fill="#6D80BF"></path></g></g></g></svg>